<?xml version="1.0" encoding="UTF-8" standalone="no"?>
<svg
   xmlns:dc="http://purl.org/dc/elements/1.1/"
   xmlns:cc="http://creativecommons.org/ns#"
   xmlns:rdf="http://www.w3.org/1999/02/22-rdf-syntax-ns#"
   xmlns:svg="http://www.w3.org/2000/svg"
   xmlns="http://www.w3.org/2000/svg"
   xmlns:sodipodi="http://sodipodi.sourceforge.net/DTD/sodipodi-0.dtd"
   xmlns:inkscape="http://www.inkscape.org/namespaces/inkscape"
   version="1.1"
   x="0px"
   y="0px"
   viewBox="0 0 50.000004 50"
   enable-background="new 0 0 100 100"
   xml:space="preserve"
   id="svg8"
   sodipodi:docname="knopen.svg"
   width="50.000004"
   height="50"
   inkscape:version="0.92.4 (unknown)"><metadata
     id="metadata14"><rdf:RDF><cc:Work
         rdf:about=""><dc:format>image/svg+xml</dc:format><dc:type
           rdf:resource="http://purl.org/dc/dcmitype/StillImage" /></cc:Work></rdf:RDF></metadata><defs
     id="defs12" /><sodipodi:namedview
     pagecolor="#ffffff"
     bordercolor="#666666"
     borderopacity="1"
     objecttolerance="10"
     gridtolerance="10"
     guidetolerance="10"
     inkscape:pageopacity="0"
     inkscape:pageshadow="2"
     inkscape:window-width="1366"
     inkscape:window-height="725"
     id="namedview10"
     showgrid="false"
     inkscape:zoom="1.888"
     inkscape:cx="130.03177"
     inkscape:cy="1.8002755"
     inkscape:window-x="0"
     inkscape:window-y="0"
     inkscape:window-maximized="1"
     inkscape:current-layer="svg8" /><rect
     style="opacity:1;fill:#aa0000;fill-opacity:1;stroke:none;stroke-width:5.57551098;stroke-linecap:square;stroke-linejoin:miter;stroke-miterlimit:4;stroke-dasharray:none;stroke-dashoffset:0;stroke-opacity:1;paint-order:normal"
     id="rect820"
     width="50"
     height="50"
     x="4.5909414e-06"
     y="0"
     inkscape:export-xdpi="184.32001"
     inkscape:export-ydpi="184.32001" /><g
     id="g826"
     transform="translate(177.22457,-11.651971)"><path
       id="path821"
       d="M 97.139832,49.999428 A 47.139832,47.139832 0 0 1 50,97.139259 47.139832,47.139832 0 0 1 2.8601685,49.999428 47.139832,47.139832 0 0 1 50,2.8595963 47.139832,47.139832 0 0 1 97.139832,49.999428 Z"
       style="opacity:1;fill:#999999;fill-opacity:1;fill-rule:nonzero;stroke:none;stroke-width:18.89763832;stroke-linecap:square;stroke-linejoin:miter;stroke-miterlimit:4;stroke-dasharray:none;stroke-opacity:1;paint-order:stroke fill markers"
       inkscape:connector-curvature="0" /><path
       inkscape:export-ydpi="305.47415"
       inkscape:export-xdpi="305.47415"
       style="fill:#aa0000"
       id="path2"
       d="M 56.035,12.541 C 55.109,12.005 53.969,12 53.041,12.531 52.609,12.778 42.471,18.72 42.471,31.636 v 25.442 c 0,1.657 1.343,3 3,3 H 47 v 24.785 c 0,1.657 1.343,3 3,3 1.657,0 3,-1.343 3,-3 V 60.079 h 1.529 c 1.657,0 3,-1.343 3,-3 V 15.136 c 0,-1.069 -0.569,-2.058 -1.494,-2.595 z M 51.529,54.079 H 48.47 V 31.637 c 0,-4.167 1.438,-7.344 3.059,-9.601 z"
       inkscape:connector-curvature="0" /></g><g
     transform="matrix(0.53033706,0,0,0.53033706,-1.5168534,-1.5165491)"
     id="g818"><path
       inkscape:connector-curvature="0"
       style="opacity:1;fill:#999999;fill-opacity:1;fill-rule:nonzero;stroke:none;stroke-width:18.89763832;stroke-linecap:square;stroke-linejoin:miter;stroke-miterlimit:4;stroke-dasharray:none;stroke-opacity:1;paint-order:stroke fill markers"
       d="M 97.139832,49.999428 A 47.139832,47.139832 0 0 1 50,97.139259 47.139832,47.139832 0 0 1 2.8601685,49.999428 47.139832,47.139832 0 0 1 50,2.8595963 47.139832,47.139832 0 0 1 97.139832,49.999428 Z"
       id="path814" /><path
       inkscape:connector-curvature="0"
       d="M 56.035,12.541 C 55.109,12.005 53.969,12 53.041,12.531 52.609,12.778 42.471,18.72 42.471,31.636 v 25.442 c 0,1.657 1.343,3 3,3 H 47 v 24.785 c 0,1.657 1.343,3 3,3 1.657,0 3,-1.343 3,-3 V 60.079 h 1.529 c 1.657,0 3,-1.343 3,-3 V 15.136 c 0,-1.069 -0.569,-2.058 -1.494,-2.595 z M 51.529,54.079 H 48.47 V 31.637 c 0,-4.167 1.438,-7.344 3.059,-9.601 z"
       id="path816"
       style="fill:#aa0000"
       inkscape:export-xdpi="305.47415"
       inkscape:export-ydpi="305.47415" /></g></svg>